{
	"asset":{
		"generator":"Khronos glTF Blender I/O v4.3.47",
		"version":"2.0"
	},
	"scene":0,
	"scenes":[
		{
			"name":"Scene",
			"nodes":[
				2
			]
		}
	],
	"nodes":[
		{
			"mesh":0,
			"name":"Object_4"
		},
		{
			"children":[
				0
			],
			"name":"Destroyed_warehouse_in_Kaarina_Finland_SF.obj.cleaner.materialm"
		},
		{
			"children":[
				1
			],
			"name":"Sketchfab_model",
			"rotation":[
				-0.70710688829422,
				0,
				0,
				0.7071066498756409
			]
		}
	],
	"materials":[
		{
			"doubleSided":true,
			"name":"Destroyed_warehouse_in_Kaarina_finland",
			"normalTexture":{
				"index":0
			},
			"occlusionTexture":{
				"index":1
			},
			"pbrMetallicRoughness":{
				"baseColorTexture":{
					"index":2
				},
				"metallicFactor":0,
				"metallicRoughnessTexture":{
					"index":1
				}
			}
		},
		{
			"doubleSided":true,
			"name":"Base",
			"pbrMetallicRoughness":{
				"baseColorFactor":[
					0.025231095030903816,
					0.025231095030903816,
					0.025231095030903816,
					1
				],
				"metallicFactor":0
			}
		}
	],
	"meshes":[
		{
			"name":"Object_2",
			"primitives":[
				{
					"attributes":{
						"POSITION":0,
						"NORMAL":1,
						"TEXCOORD_0":2
					},
					"indices":3,
					"material":0
				},
				{
					"attributes":{
						"POSITION":4,
						"NORMAL":5,
						"TEXCOORD_0":6
					},
					"indices":7,
					"material":1
				}
			]
		}
	],
	"textures":[
		{
			"sampler":0,
			"source":0
		},
		{
			"sampler":0,
			"source":1
		},
		{
			"sampler":0,
			"source":2
		}
	],
	"images":[
		{
			"mimeType":"image/png",
			"name":"Destroyed_warehouse_in_Kaarina_finland_normal",
			"uri":"Destroyed_warehouse_in_Kaarina_finland_normal.png"
		},
		{
			"mimeType":"image/png",
			"name":"Destroyed_warehouse_in_Kaarina_finland_metallicRoughness",
			"uri":"Destroyed_warehouse_in_Kaarina_finland_metallicRoughness.png"
		},
		{
			"mimeType":"image/jpeg",
			"name":"Destroyed_warehouse_in_Kaarina_finland_baseColor",
			"uri":"Destroyed_warehouse_in_Kaarina_finland_baseColor.jpg"
		}
	],
	"accessors":[
		{
			"bufferView":0,
			"componentType":5126,
			"count":249637,
			"max":[
				26.941152572631836,
				21.9567928314209,
				21.606807708740234
			],
			"min":[
				-24.40157699584961,
				-10.830763816833496,
				0.8968849182128906
			],
			"type":"VEC3"
		},
		{
			"bufferView":1,
			"componentType":5126,
			"count":249637,
			"type":"VEC3"
		},
		{
			"bufferView":2,
			"componentType":5126,
			"count":249637,
			"type":"VEC2"
		},
		{
			"bufferView":3,
			"componentType":5125,
			"count":847437,
			"type":"SCALAR"
		},
		{
			"bufferView":4,
			"componentType":5126,
			"count":4030,
			"max":[
				27.005592346191406,
				21.961511611938477,
				3.0262179374694824
			],
			"min":[
				-24.40463638305664,
				-10.860949516296387,
				0.12300223112106323
			],
			"type":"VEC3"
		},
		{
			"bufferView":5,
			"componentType":5126,
			"count":4030,
			"type":"VEC3"
		},
		{
			"bufferView":6,
			"componentType":5126,
			"count":4030,
			"type":"VEC2"
		},
		{
			"bufferView":7,
			"componentType":5123,
			"count":9165,
			"type":"SCALAR"
		}
	],
	"bufferViews":[
		{
			"buffer":0,
			"byteLength":2995644,
			"byteOffset":0,
			"target":34962
		},
		{
			"buffer":0,
			"byteLength":2995644,
			"byteOffset":2995644,
			"target":34962
		},
		{
			"buffer":0,
			"byteLength":1997096,
			"byteOffset":5991288,
			"target":34962
		},
		{
			"buffer":0,
			"byteLength":3389748,
			"byteOffset":7988384,
			"target":34963
		},
		{
			"buffer":0,
			"byteLength":48360,
			"byteOffset":11378132,
			"target":34962
		},
		{
			"buffer":0,
			"byteLength":48360,
			"byteOffset":11426492,
			"target":34962
		},
		{
			"buffer":0,
			"byteLength":32240,
			"byteOffset":11474852,
			"target":34962
		},
		{
			"buffer":0,
			"byteLength":18330,
			"byteOffset":11507092,
			"target":34963
		}
	],
	"samplers":[
		{
			"magFilter":9729,
			"minFilter":9987
		}
	],
	"buffers":[
		{
			"byteLength":11525424,
			"uri":"warehouse_remeshed.bin"
		}
	]
}
