{
	"asset":{
		"generator":"Khronos glTF Blender I/O v4.3.47",
		"version":"2.0"
	},
	"scene":0,
	"scenes":[
		{
			"name":"Scene",
			"nodes":[
				0
			]
		}
	],
	"nodes":[
		{
			"mesh":0,
			"name":"weird_fishes.0.0",
			"rotation":[
				0.7071068286895752,
				0,
				0,
				0.7071068286895752
			]
		}
	],
	"meshes":[
		{
			"name":"weird_fishes.0.0",
			"primitives":[
				{
					"attributes":{
						"POSITION":0,
						"NORMAL":1,
						"TEXCOORD_0":2
					},
					"indices":3
				}
			]
		}
	],
	"accessors":[
		{
			"bufferView":0,
			"componentType":5126,
			"count":2400000,
			"max":[
				286.9682922363281,
				153.10691833496094,
				141.95941162109375
			],
			"min":[
				-315.6651306152344,
				-169.1254425048828,
				-152.4810333251953
			],
			"type":"VEC3"
		},
		{
			"bufferView":1,
			"componentType":5126,
			"count":2400000,
			"type":"VEC3"
		},
		{
			"bufferView":2,
			"componentType":5126,
			"count":2400000,
			"type":"VEC2"
		},
		{
			"bufferView":3,
			"componentType":5125,
			"count":7192800,
			"type":"SCALAR"
		}
	],
	"bufferViews":[
		{
			"buffer":0,
			"byteLength":28800000,
			"byteOffset":0,
			"target":34962
		},
		{
			"buffer":0,
			"byteLength":28800000,
			"byteOffset":28800000,
			"target":34962
		},
		{
			"buffer":0,
			"byteLength":19200000,
			"byteOffset":57600000,
			"target":34962
		},
		{
			"buffer":0,
			"byteLength":28771200,
			"byteOffset":76800000,
			"target":34963
		}
	],
	"buffers":[
		{
			"byteLength":105571200,
			"uri":"weird_shape.bin"
		}
	]
}
