{
	"asset":{
		"generator":"Khronos glTF Blender I/O v4.3.47",
		"version":"2.0"
	},
	"scene":0,
	"scenes":[
		{
			"name":"Scene",
			"nodes":[
				0
			]
		}
	],
	"nodes":[
		{
			"mesh":0,
			"name":"weird_fishes.0.0",
			"rotation":[
				0.7071068286895752,
				0,
				0,
				0.7071068286895752
			]
		}
	],
	"meshes":[
		{
			"name":"weird_fishes.0.0",
			"primitives":[
				{
					"attributes":{
						"POSITION":0,
						"NORMAL":1,
						"TEXCOORD_0":2
					},
					"indices":3
				}
			]
		}
	],
	"accessors":[
		{
			"bufferView":0,
			"componentType":5126,
			"count":252080,
			"max":[
				286.9677734375,
				153.10455322265625,
				141.9602508544922
			],
			"min":[
				-315.6611022949219,
				-169.1254425048828,
				-152.48106384277344
			],
			"type":"VEC3"
		},
		{
			"bufferView":1,
			"componentType":5126,
			"count":252080,
			"type":"VEC3"
		},
		{
			"bufferView":2,
			"componentType":5126,
			"count":252080,
			"type":"VEC2"
		},
		{
			"bufferView":3,
			"componentType":5125,
			"count":719277,
			"type":"SCALAR"
		}
	],
	"bufferViews":[
		{
			"buffer":0,
			"byteLength":3024960,
			"byteOffset":0,
			"target":34962
		},
		{
			"buffer":0,
			"byteLength":3024960,
			"byteOffset":3024960,
			"target":34962
		},
		{
			"buffer":0,
			"byteLength":2016640,
			"byteOffset":6049920,
			"target":34962
		},
		{
			"buffer":0,
			"byteLength":2877108,
			"byteOffset":8066560,
			"target":34963
		}
	],
	"buffers":[
		{
			"byteLength":10943668,
			"uri":"weird_shape2.bin"
		}
	]
}
