{
	"asset":{
		"generator":"Khronos glTF Blender I/O v4.3.47",
		"version":"2.0"
	},
	"extensionsUsed":[
		"KHR_materials_clearcoat",
		"KHR_materials_specular"
	],
	"scene":0,
	"scenes":[
		{
			"name":"Scene",
			"nodes":[
				2,
				4,
				6,
				8,
				10,
				11
			]
		}
	],
	"nodes":[
		{
			"mesh":0,
			"name":"Object_4",
			"rotation":[
				0,
				0,
				0.7057968378067017,
				0.7084142565727234
			],
			"scale":[
				1.8751333951950073,
				1.8751335144042969,
				1.8751331567764282
			],
			"translation":[
				0,
				0,
				-2.698793411254883
			]
		},
		{
			"children":[
				0
			],
			"name":"eye 2.obj.cleaner.materialmerger.gles"
		},
		{
			"children":[
				1
			],
			"name":"Sketchfab_model",
			"rotation":[
				-0.70710688829422,
				0,
				0,
				0.7071066498756409
			],
			"scale":[
				0.08821505308151245,
				0.08821504563093185,
				0.08821504563093185
			],
			"translation":[
				0.4561500549316406,
				0,
				0
			]
		},
		{
			"name":"eye 2.obj.cleaner.materialmerger.gles.001"
		},
		{
			"children":[
				3
			],
			"name":"Sketchfab_model.001",
			"rotation":[
				-0.70710688829422,
				0,
				0,
				0.7071066498756409
			],
			"scale":[
				0.08821505308151245,
				0.08821504563093185,
				0.08821504563093185
			],
			"translation":[
				0.4561500549316406,
				0,
				0
			]
		},
		{
			"name":"eye 2.obj.cleaner.materialmerger.gles.002"
		},
		{
			"children":[
				5
			],
			"name":"Sketchfab_model.002",
			"rotation":[
				-0.70710688829422,
				0,
				0,
				0.7071066498756409
			],
			"scale":[
				0.2561267018318176,
				0.2561267018318176,
				0.2561267018318176
			],
			"translation":[
				0.4561500549316406,
				0,
				0
			]
		},
		{
			"name":"eye 2.obj.cleaner.materialmerger.gles.003"
		},
		{
			"children":[
				7
			],
			"name":"Sketchfab_model.003",
			"rotation":[
				-0.70710688829422,
				0,
				0,
				0.7071066498756409
			],
			"scale":[
				0.4083375632762909,
				0.4083375930786133,
				0.4083375930786133
			],
			"translation":[
				0.4561500549316406,
				0,
				0
			]
		},
		{
			"name":"eye 2.obj.cleaner.materialmerger.gles.004"
		},
		{
			"children":[
				9
			],
			"name":"Sketchfab_model.004",
			"rotation":[
				-0.70710688829422,
				0,
				0,
				0.7071066498756409
			],
			"scale":[
				0.46417078375816345,
				0.46417081356048584,
				0.46417081356048584
			],
			"translation":[
				0.4561500549316406,
				0,
				0
			]
		},
		{
			"mesh":1,
			"name":"melting",
			"rotation":[
				-0.7288196682929993,
				-0.6129186153411865,
				-0.2879292666912079,
				0.10123968124389648
			],
			"scale":[
				2.1407485008239746,
				2.1407487392425537,
				2.1407485008239746
			],
			"translation":[
				0.439744234085083,
				1.0229191780090332,
				-3.0699543952941895
			]
		}
	],
	"materials":[
		{
			"doubleSided":true,
			"extensions":{
				"KHR_materials_specular":{
					"specularColorTexture":{
						"index":0
					}
				}
			},
			"name":"Mat_0.004",
			"pbrMetallicRoughness":{
				"baseColorTexture":{
					"index":1
				},
				"metallicFactor":0
			}
		},
		{
			"doubleSided":true,
			"extensions":{
				"KHR_materials_clearcoat":{
					"clearcoatFactor":1,
					"clearcoatRoughnessFactor":0.03999999910593033
				}
			},
			"name":"Material.022",
			"pbrMetallicRoughness":{
				"baseColorFactor":[
					0.6125326752662659,
					0.6070058941841125,
					0.5685902833938599,
					1
				],
				"metallicFactor":0,
				"roughnessFactor":0.22174714505672455
			}
		},
		{
			"doubleSided":true,
			"name":"Material.024",
			"pbrMetallicRoughness":{
				"baseColorFactor":[
					0,
					0,
					0,
					1
				],
				"metallicFactor":0
			}
		}
	],
	"meshes":[
		{
			"name":"Object_2.001",
			"primitives":[
				{
					"attributes":{
						"POSITION":0,
						"NORMAL":1,
						"TEXCOORD_0":2
					},
					"indices":3,
					"material":0
				},
				{
					"attributes":{
						"POSITION":4,
						"NORMAL":5,
						"TEXCOORD_0":6
					},
					"indices":7,
					"material":1
				},
				{
					"attributes":{
						"POSITION":8,
						"NORMAL":9,
						"TEXCOORD_0":10
					},
					"indices":11,
					"material":2
				}
			]
		},
		{
			"name":"060221 10f.003",
			"primitives":[
				{
					"attributes":{
						"POSITION":12,
						"NORMAL":13
					},
					"indices":14
				}
			]
		}
	],
	"textures":[
		{
			"sampler":0,
			"source":0
		},
		{
			"sampler":0,
			"source":1
		}
	],
	"images":[
		{
			"mimeType":"image/png",
			"name":"Image",
			"uri":"Image.png"
		},
		{
			"mimeType":"image/jpeg",
			"name":"Mat_0.001_baseColor",
			"uri":"Mat_0_001_baseColor.jpg"
		}
	],
	"accessors":[
		{
			"bufferView":0,
			"componentType":5126,
			"count":623627,
			"max":[
				5.8441386222839355,
				10.728924751281738,
				5.839155673980713
			],
			"min":[
				-5.83950138092041,
				10.30831241607666,
				-5.844483375549316
			],
			"type":"VEC3"
		},
		{
			"bufferView":1,
			"componentType":5126,
			"count":623627,
			"type":"VEC3"
		},
		{
			"bufferView":2,
			"componentType":5126,
			"count":623627,
			"type":"VEC2"
		},
		{
			"bufferView":3,
			"componentType":5125,
			"count":626232,
			"type":"SCALAR"
		},
		{
			"bufferView":4,
			"componentType":5126,
			"count":279394,
			"max":[
				11.874853134155273,
				10.580190658569336,
				11.872734069824219
			],
			"min":[
				-11.874848365783691,
				-11.256473541259766,
				-11.872729301452637
			],
			"type":"VEC3"
		},
		{
			"bufferView":5,
			"componentType":5126,
			"count":279394,
			"type":"VEC3"
		},
		{
			"bufferView":6,
			"componentType":5126,
			"count":279394,
			"type":"VEC2"
		},
		{
			"bufferView":7,
			"componentType":5125,
			"count":345828,
			"type":"SCALAR"
		},
		{
			"bufferView":8,
			"componentType":5126,
			"count":279377,
			"max":[
				11.796221733093262,
				10.5101318359375,
				11.794116973876953
			],
			"min":[
				-11.79621696472168,
				-11.181936264038086,
				-11.794112205505371
			],
			"type":"VEC3"
		},
		{
			"bufferView":9,
			"componentType":5126,
			"count":279377,
			"type":"VEC3"
		},
		{
			"bufferView":10,
			"componentType":5126,
			"count":279377,
			"type":"VEC2"
		},
		{
			"bufferView":11,
			"componentType":5125,
			"count":345828,
			"type":"SCALAR"
		},
		{
			"bufferView":12,
			"componentType":5126,
			"count":1091859,
			"max":[
				3.5320792198181152,
				3.317068338394165,
				1.7326719760894775
			],
			"min":[
				-3.5941617488861084,
				-2.8468101024627686,
				-5.252062797546387
			],
			"type":"VEC3"
		},
		{
			"bufferView":13,
			"componentType":5126,
			"count":1091859,
			"type":"VEC3"
		},
		{
			"bufferView":14,
			"componentType":5125,
			"count":6513876,
			"type":"SCALAR"
		}
	],
	"bufferViews":[
		{
			"buffer":0,
			"byteLength":7483524,
			"byteOffset":0,
			"target":34962
		},
		{
			"buffer":0,
			"byteLength":7483524,
			"byteOffset":7483524,
			"target":34962
		},
		{
			"buffer":0,
			"byteLength":4989016,
			"byteOffset":14967048,
			"target":34962
		},
		{
			"buffer":0,
			"byteLength":2504928,
			"byteOffset":19956064,
			"target":34963
		},
		{
			"buffer":0,
			"byteLength":3352728,
			"byteOffset":22460992,
			"target":34962
		},
		{
			"buffer":0,
			"byteLength":3352728,
			"byteOffset":25813720,
			"target":34962
		},
		{
			"buffer":0,
			"byteLength":2235152,
			"byteOffset":29166448,
			"target":34962
		},
		{
			"buffer":0,
			"byteLength":1383312,
			"byteOffset":31401600,
			"target":34963
		},
		{
			"buffer":0,
			"byteLength":3352524,
			"byteOffset":32784912,
			"target":34962
		},
		{
			"buffer":0,
			"byteLength":3352524,
			"byteOffset":36137436,
			"target":34962
		},
		{
			"buffer":0,
			"byteLength":2235016,
			"byteOffset":39489960,
			"target":34962
		},
		{
			"buffer":0,
			"byteLength":1383312,
			"byteOffset":41724976,
			"target":34963
		},
		{
			"buffer":0,
			"byteLength":13102308,
			"byteOffset":43108288,
			"target":34962
		},
		{
			"buffer":0,
			"byteLength":13102308,
			"byteOffset":56210596,
			"target":34962
		},
		{
			"buffer":0,
			"byteLength":26055504,
			"byteOffset":69312904,
			"target":34963
		}
	],
	"samplers":[
		{
			"magFilter":9729,
			"minFilter":9987
		}
	],
	"buffers":[
		{
			"byteLength":95368408,
			"uri":"melting_man.bin"
		}
	]
}
