{
	"asset":{
		"generator":"Khronos glTF Blender I/O v4.3.47",
		"version":"2.0"
	},
	"scene":0,
	"scenes":[
		{
			"name":"Scene",
			"nodes":[
				1,
				3,
				5,
				7,
				9,
				10
			]
		}
	],
	"nodes":[
		{
			"name":"eye 2.obj.cleaner.materialmerger.gles"
		},
		{
			"children":[
				0
			],
			"name":"Sketchfab_model",
			"rotation":[
				-0.70710688829422,
				0,
				0,
				0.7071066498756409
			],
			"scale":[
				0.08821505308151245,
				0.08821504563093185,
				0.08821504563093185
			],
			"translation":[
				0.4561500549316406,
				0,
				0
			]
		},
		{
			"name":"eye 2.obj.cleaner.materialmerger.gles.001"
		},
		{
			"children":[
				2
			],
			"name":"Sketchfab_model.001",
			"rotation":[
				-0.70710688829422,
				0,
				0,
				0.7071066498756409
			],
			"scale":[
				0.08821505308151245,
				0.08821504563093185,
				0.08821504563093185
			],
			"translation":[
				0.4561500549316406,
				0,
				0
			]
		},
		{
			"name":"eye 2.obj.cleaner.materialmerger.gles.002"
		},
		{
			"children":[
				4
			],
			"name":"Sketchfab_model.002",
			"rotation":[
				-0.70710688829422,
				0,
				0,
				0.7071066498756409
			],
			"scale":[
				0.2561267018318176,
				0.2561267018318176,
				0.2561267018318176
			],
			"translation":[
				0.4561500549316406,
				0,
				0
			]
		},
		{
			"name":"eye 2.obj.cleaner.materialmerger.gles.003"
		},
		{
			"children":[
				6
			],
			"name":"Sketchfab_model.003",
			"rotation":[
				-0.70710688829422,
				0,
				0,
				0.7071066498756409
			],
			"scale":[
				0.4083375632762909,
				0.4083375930786133,
				0.4083375930786133
			],
			"translation":[
				0.4561500549316406,
				0,
				0
			]
		},
		{
			"name":"eye 2.obj.cleaner.materialmerger.gles.004"
		},
		{
			"children":[
				8
			],
			"name":"Sketchfab_model.004",
			"rotation":[
				-0.70710688829422,
				0,
				0,
				0.7071066498756409
			],
			"scale":[
				0.46417078375816345,
				0.46417081356048584,
				0.46417081356048584
			],
			"translation":[
				0.4561500549316406,
				0,
				0
			]
		},
		{
			"mesh":0,
			"name":"melting",
			"rotation":[
				-0.7288196682929993,
				-0.6129186153411865,
				-0.2879292666912079,
				0.10123968124389648
			],
			"scale":[
				11.542620658874512,
				11.542622566223145,
				11.542618751525879
			],
			"translation":[
				0.439744234085083,
				1.0229191780090332,
				-19.02839469909668
			]
		}
	],
	"meshes":[
		{
			"name":"060221 10f.003",
			"primitives":[
				{
					"attributes":{
						"POSITION":0,
						"NORMAL":1
					},
					"indices":2
				}
			]
		}
	],
	"accessors":[
		{
			"bufferView":0,
			"componentType":5126,
			"count":220709,
			"max":[
				3.5320792198181152,
				3.317068338394165,
				1.7326606512069702
			],
			"min":[
				-3.5943117141723633,
				-2.846842050552368,
				-5.252062797546387
			],
			"type":"VEC3"
		},
		{
			"bufferView":1,
			"componentType":5126,
			"count":220709,
			"type":"VEC3"
		},
		{
			"bufferView":2,
			"componentType":5125,
			"count":1302774,
			"type":"SCALAR"
		}
	],
	"bufferViews":[
		{
			"buffer":0,
			"byteLength":2648508,
			"byteOffset":0,
			"target":34962
		},
		{
			"buffer":0,
			"byteLength":2648508,
			"byteOffset":2648508,
			"target":34962
		},
		{
			"buffer":0,
			"byteLength":5211096,
			"byteOffset":5297016,
			"target":34963
		}
	],
	"buffers":[
		{
			"byteLength":10508112,
			"uri":"melting_man2.bin"
		}
	]
}
