{
	"asset":{
		"generator":"Khronos glTF Blender I/O v4.3.47",
		"version":"2.0"
	},
	"extensionsUsed":[
		"KHR_materials_specular"
	],
	"scene":0,
	"scenes":[
		{
			"name":"Scene",
			"nodes":[
				0,
				1,
				8
			]
		}
	],
	"nodes":[
		{
			"name":"braid_circle"
		},
		{
			"name":"Braid"
		},
		{
			"mesh":0,
			"name":"A30FAEE9_9C15_4F41_AB2E_F3E3DBF837DD.001",
			"rotation":[
				0,
				0,
				1,
				4.371138828673793e-08
			],
			"translation":[
				0,
				0.5803535580635071,
				0
			]
		},
		{
			"children":[
				2
			],
			"name":"A30FAEE9_9C15_4F41_AB2E_F3E3DBF837DD",
			"translation":[
				-0.00304527604021132,
				0,
				-0.00011041760444641113
			]
		},
		{
			"children":[
				3
			],
			"name":"content"
		},
		{
			"children":[
				4
			],
			"name":"Geom"
		},
		{
			"children":[
				5
			],
			"name":"export"
		},
		{
			"children":[
				6
			],
			"name":"USDRoot",
			"rotation":[
				0.70710688829422,
				0,
				0,
				0.7071066498756409
			]
		},
		{
			"children":[
				7
			],
			"name":"Sketchfab_model",
			"rotation":[
				-0.70710688829422,
				0,
				0,
				0.7071066498756409
			],
			"scale":[
				6.049884796142578,
				6.0498857498168945,
				6.0498857498168945
			]
		}
	],
	"materials":[
		{
			"extensions":{
				"KHR_materials_specular":{
					"specularFactor":0.5226666927337646
				}
			},
			"name":"Texture",
			"normalTexture":{
				"index":0
			},
			"occlusionTexture":{
				"index":1
			},
			"pbrMetallicRoughness":{
				"baseColorTexture":{
					"index":2
				},
				"metallicFactor":0.08990476280450821,
				"metallicRoughnessTexture":{
					"index":1
				},
				"roughnessFactor":0.5
			}
		}
	],
	"meshes":[
		{
			"name":"A30FAEE9_9C15_4F41_AB2E_F3E3DBF837DD",
			"primitives":[
				{
					"attributes":{
						"POSITION":0,
						"NORMAL":1,
						"TEXCOORD_0":2
					},
					"indices":3,
					"material":0
				}
			]
		}
	],
	"textures":[
		{
			"sampler":0,
			"source":0
		},
		{
			"sampler":0,
			"source":1
		},
		{
			"sampler":0,
			"source":2
		}
	],
	"images":[
		{
			"mimeType":"image/png",
			"name":"Texture_normal",
			"uri":"Texture_normal.png"
		},
		{
			"mimeType":"image/png",
			"name":"Texture_metallicRoughness",
			"uri":"Texture_metallicRoughness.png"
		},
		{
			"mimeType":"image/png",
			"name":"Texture_baseColor",
			"uri":"Texture_baseColor.png"
		}
	],
	"accessors":[
		{
			"bufferView":0,
			"componentType":5126,
			"count":15232,
			"max":[
				0.28431224822998047,
				0.4524505138397217,
				0.2992810308933258
			],
			"min":[
				-0.2703346014022827,
				1.1102230246251565e-16,
				-0.2685031592845917
			],
			"type":"VEC3"
		},
		{
			"bufferView":1,
			"componentType":5126,
			"count":15232,
			"type":"VEC3"
		},
		{
			"bufferView":2,
			"componentType":5126,
			"count":15232,
			"type":"VEC2"
		},
		{
			"bufferView":3,
			"componentType":5123,
			"count":75000,
			"type":"SCALAR"
		}
	],
	"bufferViews":[
		{
			"buffer":0,
			"byteLength":182784,
			"byteOffset":0,
			"target":34962
		},
		{
			"buffer":0,
			"byteLength":182784,
			"byteOffset":182784,
			"target":34962
		},
		{
			"buffer":0,
			"byteLength":121856,
			"byteOffset":365568,
			"target":34962
		},
		{
			"buffer":0,
			"byteLength":150000,
			"byteOffset":487424,
			"target":34963
		}
	],
	"samplers":[
		{
			"magFilter":9729,
			"minFilter":9987
		}
	],
	"buffers":[
		{
			"byteLength":637424,
			"uri":"air.bin"
		}
	]
}
