{
	"asset":{
		"generator":"Khronos glTF Blender I/O v4.3.47",
		"version":"2.0"
	},
	"scene":0,
	"scenes":[
		{
			"name":"Scene",
			"nodes":[
				1,
				4,
				6,
				8,
				10,
				12,
				14,
				16,
				18,
				20,
				22,
				24,
				26
			]
		}
	],
	"nodes":[
		{
			"name":"PM3D_arm.OBJ.cleaner.materialmerger.gles"
		},
		{
			"children":[
				0
			],
			"name":"Sketchfab_model",
			"rotation":[
				-0.7034348845481873,
				0.08872425556182861,
				-0.06848061829805374,
				0.701867401599884
			],
			"translation":[
				0.23696565628051758,
				1.0705156326293945,
				0.1354907602071762
			]
		},
		{
			"mesh":0,
			"name":"Object_4.002",
			"rotation":[
				0.029553337022662163,
				0.7584009766578674,
				0.016335852444171906,
				0.6509129405021667
			],
			"scale":[
				4.152624607086182,
				4.152625560760498,
				4.152625560760498
			],
			"translation":[
				27.301271438598633,
				26.690189361572266,
				5.874021530151367
			]
		},
		{
			"children":[
				2
			],
			"name":"PM3D_arm.OBJ.cleaner.materialmerger.gles.006"
		},
		{
			"children":[
				3
			],
			"name":"Sketchfab_model.006",
			"rotation":[
				-0.1796596497297287,
				0.6858679056167603,
				0.6258612871170044,
				0.32496970891952515
			],
			"translation":[
				36.01674270629883,
				-13.905834197998047,
				-0.9063113927841187
			]
		},
		{
			"name":"PM3D_arm.OBJ.cleaner.materialmerger.gles.007"
		},
		{
			"children":[
				5
			],
			"name":"Sketchfab_model.007",
			"rotation":[
				-0.05337051302194595,
				0.6536394953727722,
				-0.7374777793884277,
				0.16134890913963318
			],
			"translation":[
				-1.2903947830200195,
				1.4166858196258545,
				0.17967559397220612
			]
		},
		{
			"name":"PM3D_arm.OBJ.cleaner.materialmerger.gles.008"
		},
		{
			"children":[
				7
			],
			"name":"Sketchfab_model.008",
			"rotation":[
				-0.9118632674217224,
				0.10765985399484634,
				-0.031159846112132072,
				0.3948972225189209
			],
			"translation":[
				6.9313764572143555,
				-0.4467460811138153,
				-0.058171071112155914
			]
		},
		{
			"name":"PM3D_arm.OBJ.cleaner.materialmerger.gles.009"
		},
		{
			"children":[
				9
			],
			"name":"Sketchfab_model.009",
			"rotation":[
				-0.7034348845481873,
				0.08872425556182861,
				-0.06848061829805374,
				0.701867401599884
			],
			"translation":[
				9.618697166442871,
				-1.055816650390625,
				-0.13591225445270538
			]
		},
		{
			"name":"PM3D_arm.OBJ.cleaner.materialmerger.gles.010"
		},
		{
			"children":[
				11
			],
			"name":"Sketchfab_model.010",
			"rotation":[
				0.6404496431350708,
				-0.17205768823623657,
				-0.6505340933799744,
				0.3701699376106262
			],
			"translation":[
				-5.502795696258545,
				2.3714098930358887,
				0.30153563618659973
			]
		},
		{
			"name":"PM3D_arm.OBJ.cleaner.materialmerger.gles.011"
		},
		{
			"children":[
				13
			],
			"name":"Sketchfab_model.011",
			"rotation":[
				-0.8620524406433105,
				-0.37141892313957214,
				-0.3057980239391327,
				0.15937738120555878
			],
			"translation":[
				-1.2903947830200195,
				1.4166858196258545,
				0.17967559397220612
			]
		},
		{
			"name":"PM3D_arm.OBJ.cleaner.materialmerger.gles.012"
		},
		{
			"children":[
				15
			],
			"name":"Sketchfab_model.012",
			"rotation":[
				-0.7034348845481873,
				0.08872425556182861,
				-0.06848061829805374,
				0.701867401599884
			],
			"translation":[
				9.618697166442871,
				-1.055816650390625,
				-0.13591225445270538
			]
		},
		{
			"name":"PM3D_arm.OBJ.cleaner.materialmerger.gles.001"
		},
		{
			"children":[
				17
			],
			"name":"Sketchfab_model.001",
			"rotation":[
				-0.7034348845481873,
				0.08872425556182861,
				-0.06848061829805374,
				0.701867401599884
			],
			"translation":[
				4.805636882781982,
				0.03504443168640137,
				0.003324209712445736
			]
		},
		{
			"name":"PM3D_arm.OBJ.cleaner.materialmerger.gles.002"
		},
		{
			"children":[
				19
			],
			"name":"Sketchfab_model.002",
			"rotation":[
				-0.7034348845481873,
				0.08872425556182861,
				-0.06848061829805374,
				0.701867401599884
			],
			"translation":[
				-5.502795696258545,
				2.3714098930358887,
				0.30153563618659973
			]
		},
		{
			"name":"PM3D_arm.OBJ.cleaner.materialmerger.gles.003"
		},
		{
			"children":[
				21
			],
			"name":"Sketchfab_model.003",
			"rotation":[
				-0.7034348845481873,
				0.08872425556182861,
				-0.06848061829805374,
				0.701867401599884
			],
			"translation":[
				0.23696565628051758,
				1.0705156326293945,
				0.1354907602071762
			]
		},
		{
			"name":"PM3D_arm.OBJ.cleaner.materialmerger.gles.004"
		},
		{
			"children":[
				23
			],
			"name":"Sketchfab_model.004",
			"rotation":[
				-0.7034348845481873,
				0.08872425556182861,
				-0.06848061829805374,
				0.701867401599884
			],
			"translation":[
				9.618697166442871,
				-1.055816650390625,
				-0.13591225445270538
			]
		},
		{
			"name":"PM3D_arm.OBJ.cleaner.materialmerger.gles.005"
		},
		{
			"children":[
				25
			],
			"name":"Sketchfab_model.005",
			"rotation":[
				-0.7034348845481873,
				0.08872425556182861,
				-0.06848061829805374,
				0.701867401599884
			],
			"translation":[
				0.23696565628051758,
				1.0705156326293945,
				0.1354907602071762
			]
		}
	],
	"meshes":[
		{
			"name":"Object_2.002",
			"primitives":[
				{
					"attributes":{
						"POSITION":0,
						"NORMAL":1
					},
					"indices":2
				}
			]
		}
	],
	"accessors":[
		{
			"bufferView":0,
			"componentType":5126,
			"count":187215,
			"max":[
				9.234289169311523,
				7.965992450714111,
				9.003044128417969
			],
			"min":[
				-9.324376106262207,
				-8.456977844238281,
				-8.402981758117676
			],
			"type":"VEC3"
		},
		{
			"bufferView":1,
			"componentType":5126,
			"count":187215,
			"type":"VEC3"
		},
		{
			"bufferView":2,
			"componentType":5125,
			"count":642069,
			"type":"SCALAR"
		}
	],
	"bufferViews":[
		{
			"buffer":0,
			"byteLength":2246580,
			"byteOffset":0,
			"target":34962
		},
		{
			"buffer":0,
			"byteLength":2246580,
			"byteOffset":2246580,
			"target":34962
		},
		{
			"buffer":0,
			"byteLength":2568276,
			"byteOffset":4493160,
			"target":34963
		}
	],
	"buffers":[
		{
			"byteLength":7061436,
			"uri":"hands.bin"
		}
	]
}
