{
	"asset":{
		"generator":"Khronos glTF Blender I/O v4.3.47",
		"version":"2.0"
	},
	"scene":0,
	"scenes":[
		{
			"name":"Scene",
			"nodes":[
				5
			]
		}
	],
	"nodes":[
		{
			"mesh":0,
			"name":"Mesh1__3_0",
			"scale":[
				2.6561551094055176,
				2.6561553478240967,
				2.6561553478240967
			],
			"translation":[
				0.658470094203949,
				1.661773920059204,
				1.0235748291015625
			]
		},
		{
			"children":[
				0
			],
			"name":"Mesh1"
		},
		{
			"children":[
				1
			],
			"name":"Model"
		},
		{
			"children":[
				2
			],
			"name":"RootNode"
		},
		{
			"children":[
				3
			],
			"name":"e67c0532cb784919ba6ae207392145a8.fbx",
			"rotation":[
				0.70710688829422,
				0,
				0,
				0.7071066498756409
			],
			"scale":[
				0.009999999776482582,
				0.010000000707805157,
				0.010000000707805157
			]
		},
		{
			"children":[
				4
			],
			"name":"Sketchfab_model",
			"rotation":[
				-0.70710688829422,
				0,
				0,
				0.7071066498756409
			],
			"scale":[
				-181.45799255371094,
				-181.45797729492188,
				-181.45797729492188
			]
		}
	],
	"materials":[
		{
			"doubleSided":true,
			"name":"Material.001",
			"pbrMetallicRoughness":{
				"baseColorFactor":[
					0.800000011920929,
					0.800000011920929,
					0.800000011920929,
					1
				],
				"metallicFactor":0,
				"roughnessFactor":0.5
			}
		}
	],
	"meshes":[
		{
			"name":"Mesh1__3_0",
			"primitives":[
				{
					"attributes":{
						"POSITION":0,
						"NORMAL":1,
						"TEXCOORD_0":2,
						"TEXCOORD_1":3,
						"TEXCOORD_2":4,
						"TEXCOORD_3":5,
						"TEXCOORD_4":6,
						"TEXCOORD_5":7,
						"TEXCOORD_6":8,
						"TEXCOORD_7":9
					},
					"indices":10,
					"material":0
				}
			]
		}
	],
	"accessors":[
		{
			"bufferView":0,
			"componentType":5126,
			"count":2051,
			"max":[
				6.903703689575195,
				6.227470397949219,
				4.0548095703125
			],
			"min":[
				-4.514434814453125,
				-5.282125949859619,
				-7.577994346618652
			],
			"type":"VEC3"
		},
		{
			"bufferView":1,
			"componentType":5126,
			"count":2051,
			"type":"VEC3"
		},
		{
			"bufferView":2,
			"componentType":5126,
			"count":2051,
			"type":"VEC2"
		},
		{
			"bufferView":3,
			"componentType":5126,
			"count":2051,
			"type":"VEC2"
		},
		{
			"bufferView":4,
			"componentType":5126,
			"count":2051,
			"type":"VEC2"
		},
		{
			"bufferView":5,
			"componentType":5126,
			"count":2051,
			"type":"VEC2"
		},
		{
			"bufferView":6,
			"componentType":5126,
			"count":2051,
			"type":"VEC2"
		},
		{
			"bufferView":7,
			"componentType":5126,
			"count":2051,
			"type":"VEC2"
		},
		{
			"bufferView":8,
			"componentType":5126,
			"count":2051,
			"type":"VEC2"
		},
		{
			"bufferView":9,
			"componentType":5126,
			"count":2051,
			"type":"VEC2"
		},
		{
			"bufferView":10,
			"componentType":5123,
			"count":2970,
			"type":"SCALAR"
		}
	],
	"bufferViews":[
		{
			"buffer":0,
			"byteLength":24612,
			"byteOffset":0,
			"target":34962
		},
		{
			"buffer":0,
			"byteLength":24612,
			"byteOffset":24612,
			"target":34962
		},
		{
			"buffer":0,
			"byteLength":16408,
			"byteOffset":49224,
			"target":34962
		},
		{
			"buffer":0,
			"byteLength":16408,
			"byteOffset":65632,
			"target":34962
		},
		{
			"buffer":0,
			"byteLength":16408,
			"byteOffset":82040,
			"target":34962
		},
		{
			"buffer":0,
			"byteLength":16408,
			"byteOffset":98448,
			"target":34962
		},
		{
			"buffer":0,
			"byteLength":16408,
			"byteOffset":114856,
			"target":34962
		},
		{
			"buffer":0,
			"byteLength":16408,
			"byteOffset":131264,
			"target":34962
		},
		{
			"buffer":0,
			"byteLength":16408,
			"byteOffset":147672,
			"target":34962
		},
		{
			"buffer":0,
			"byteLength":16408,
			"byteOffset":164080,
			"target":34962
		},
		{
			"buffer":0,
			"byteLength":5940,
			"byteOffset":180488,
			"target":34963
		}
	],
	"buffers":[
		{
			"byteLength":186428,
			"uri":"pressure.bin"
		}
	]
}
