{
	"asset":{
		"generator":"Khronos glTF Blender I/O v4.3.47",
		"version":"2.0"
	},
	"scene":0,
	"scenes":[
		{
			"name":"Scene",
			"nodes":[
				12
			]
		}
	],
	"nodes":[
		{
			"mesh":0,
			"name":"Object_10"
		},
		{
			"mesh":1,
			"name":"Object_11"
		},
		{
			"mesh":2,
			"name":"Object_12"
		},
		{
			"mesh":3,
			"name":"Object_2"
		},
		{
			"mesh":4,
			"name":"Object_3"
		},
		{
			"mesh":5,
			"name":"Object_4"
		},
		{
			"mesh":6,
			"name":"Object_5"
		},
		{
			"mesh":7,
			"name":"Object_6"
		},
		{
			"mesh":8,
			"name":"Object_7"
		},
		{
			"mesh":9,
			"name":"Object_8"
		},
		{
			"mesh":10,
			"name":"Object_9"
		},
		{
			"children":[
				0,
				1,
				2,
				3,
				4,
				5,
				6,
				7,
				8,
				9,
				10
			],
			"name":"Destroyed_warehouse_in_Kaarina_Finland_SF.obj.cleaner.materialm"
		},
		{
			"children":[
				11
			],
			"name":"Sketchfab_model",
			"rotation":[
				-0.70710688829422,
				0,
				0,
				0.7071066498756409
			]
		}
	],
	"materials":[
		{
			"doubleSided":true,
			"name":"Destroyed_warehouse_in_Kaarina_finland",
			"normalTexture":{
				"index":0
			},
			"occlusionTexture":{
				"index":1
			},
			"pbrMetallicRoughness":{
				"baseColorTexture":{
					"index":2
				},
				"metallicFactor":0,
				"metallicRoughnessTexture":{
					"index":1
				}
			}
		},
		{
			"doubleSided":true,
			"name":"Base",
			"pbrMetallicRoughness":{
				"baseColorFactor":[
					0.025231095030903816,
					0.025231095030903816,
					0.025231095030903816,
					1
				],
				"metallicFactor":0
			}
		}
	],
	"meshes":[
		{
			"name":"Object_8",
			"primitives":[
				{
					"attributes":{
						"POSITION":0,
						"NORMAL":1,
						"TEXCOORD_0":2
					},
					"indices":3,
					"material":0
				}
			]
		},
		{
			"name":"Object_9",
			"primitives":[
				{
					"attributes":{
						"POSITION":4,
						"NORMAL":5,
						"TEXCOORD_0":6
					},
					"indices":7,
					"material":0
				}
			]
		},
		{
			"name":"Object_10",
			"primitives":[
				{
					"attributes":{
						"POSITION":8,
						"NORMAL":9,
						"TEXCOORD_0":10
					},
					"indices":11,
					"material":1
				}
			]
		},
		{
			"name":"Object_0",
			"primitives":[
				{
					"attributes":{
						"POSITION":12,
						"NORMAL":13,
						"TEXCOORD_0":14
					},
					"indices":15,
					"material":0
				}
			]
		},
		{
			"name":"Object_1",
			"primitives":[
				{
					"attributes":{
						"POSITION":16,
						"NORMAL":17,
						"TEXCOORD_0":18
					},
					"indices":19,
					"material":0
				}
			]
		},
		{
			"name":"Object_2",
			"primitives":[
				{
					"attributes":{
						"POSITION":20,
						"NORMAL":21,
						"TEXCOORD_0":22
					},
					"indices":23,
					"material":0
				}
			]
		},
		{
			"name":"Object_3",
			"primitives":[
				{
					"attributes":{
						"POSITION":24,
						"NORMAL":25,
						"TEXCOORD_0":26
					},
					"indices":27,
					"material":0
				}
			]
		},
		{
			"name":"Object_4",
			"primitives":[
				{
					"attributes":{
						"POSITION":28,
						"NORMAL":29,
						"TEXCOORD_0":30
					},
					"indices":31,
					"material":0
				}
			]
		},
		{
			"name":"Object_5",
			"primitives":[
				{
					"attributes":{
						"POSITION":32,
						"NORMAL":33,
						"TEXCOORD_0":34
					},
					"indices":35,
					"material":0
				}
			]
		},
		{
			"name":"Object_6",
			"primitives":[
				{
					"attributes":{
						"POSITION":36,
						"NORMAL":37,
						"TEXCOORD_0":38
					},
					"indices":39,
					"material":0
				}
			]
		},
		{
			"name":"Object_7",
			"primitives":[
				{
					"attributes":{
						"POSITION":40,
						"NORMAL":41,
						"TEXCOORD_0":42
					},
					"indices":43,
					"material":0
				}
			]
		}
	],
	"textures":[
		{
			"sampler":0,
			"source":0
		},
		{
			"sampler":0,
			"source":1
		},
		{
			"sampler":0,
			"source":2
		}
	],
	"images":[
		{
			"mimeType":"image/png",
			"name":"Destroyed_warehouse_in_Kaarina_finland_normal.png",
			"uri":"destroyed_warehouse_in_kaarina_finland/textures/Destroyed_warehouse_in_Kaarina_finland_normal.png"
		},
		{
			"mimeType":"image/png",
			"name":"Destroyed_warehouse_in_Kaarina_finland_metallicRoughness.png",
			"uri":"destroyed_warehouse_in_kaarina_finland/textures/Destroyed_warehouse_in_Kaarina_finland_metallicRoughness.png"
		},
		{
			"mimeType":"image/jpeg",
			"name":"Destroyed_warehouse_in_Kaarina_finland_baseColor.jpeg",
			"uri":"destroyed_warehouse_in_kaarina_finland/textures/Destroyed_warehouse_in_Kaarina_finland_baseColor.jpeg"
		}
	],
	"accessors":[
		{
			"bufferView":0,
			"componentType":5126,
			"count":65602,
			"max":[
				11.322054862976074,
				21.4788818359375,
				20.508094787597656
			],
			"min":[
				-23.500389099121094,
				-10.767586708068848,
				1.2706259489059448
			],
			"type":"VEC3"
		},
		{
			"bufferView":1,
			"componentType":5126,
			"count":65602,
			"type":"VEC3"
		},
		{
			"bufferView":2,
			"componentType":5126,
			"count":65602,
			"type":"VEC2"
		},
		{
			"bufferView":3,
			"componentType":5125,
			"count":272574,
			"type":"SCALAR"
		},
		{
			"bufferView":4,
			"componentType":5126,
			"count":6897,
			"max":[
				11.160553932189941,
				10.4537935256958,
				10.872802734375
			],
			"min":[
				0.5656930208206177,
				-10.830764770507812,
				1.9620929956436157
			],
			"type":"VEC3"
		},
		{
			"bufferView":5,
			"componentType":5126,
			"count":6897,
			"type":"VEC3"
		},
		{
			"bufferView":6,
			"componentType":5126,
			"count":6897,
			"type":"VEC2"
		},
		{
			"bufferView":7,
			"componentType":5123,
			"count":24795,
			"type":"SCALAR"
		},
		{
			"bufferView":8,
			"componentType":5126,
			"count":8622,
			"max":[
				27.005393981933594,
				21.96151351928711,
				3.0260679721832275
			],
			"min":[
				-24.40604019165039,
				-10.860950469970703,
				0.12312500178813934
			],
			"type":"VEC3"
		},
		{
			"bufferView":9,
			"componentType":5126,
			"count":8622,
			"type":"VEC3"
		},
		{
			"bufferView":10,
			"componentType":5126,
			"count":8622,
			"type":"VEC2"
		},
		{
			"bufferView":11,
			"componentType":5123,
			"count":18777,
			"type":"SCALAR"
		},
		{
			"bufferView":12,
			"componentType":5126,
			"count":65572,
			"max":[
				26.941043853759766,
				13.128406524658203,
				15.871772766113281
			],
			"min":[
				-18.88754653930664,
				-10.794221878051758,
				1.082250952720642
			],
			"type":"VEC3"
		},
		{
			"bufferView":13,
			"componentType":5126,
			"count":65572,
			"type":"VEC3"
		},
		{
			"bufferView":14,
			"componentType":5126,
			"count":65572,
			"type":"VEC2"
		},
		{
			"bufferView":15,
			"componentType":5125,
			"count":337983,
			"type":"SCALAR"
		},
		{
			"bufferView":16,
			"componentType":5126,
			"count":65566,
			"max":[
				26.457027435302734,
				18.273845672607422,
				10.862934112548828
			],
			"min":[
				4.073482990264893,
				-10.824480056762695,
				0.8968849778175354
			],
			"type":"VEC3"
		},
		{
			"bufferView":17,
			"componentType":5126,
			"count":65566,
			"type":"VEC3"
		},
		{
			"bufferView":18,
			"componentType":5126,
			"count":65566,
			"type":"VEC2"
		},
		{
			"bufferView":19,
			"componentType":5125,
			"count":329382,
			"type":"SCALAR"
		},
		{
			"bufferView":20,
			"componentType":5126,
			"count":65548,
			"max":[
				11.539860725402832,
				16.841129302978516,
				10.872802734375
			],
			"min":[
				-6.9327239990234375,
				-10.707932472229004,
				1.8899799585342407
			],
			"type":"VEC3"
		},
		{
			"bufferView":21,
			"componentType":5126,
			"count":65548,
			"type":"VEC3"
		},
		{
			"bufferView":22,
			"componentType":5126,
			"count":65548,
			"type":"VEC2"
		},
		{
			"bufferView":23,
			"componentType":5125,
			"count":322746,
			"type":"SCALAR"
		},
		{
			"bufferView":24,
			"componentType":5126,
			"count":65554,
			"max":[
				11.36413860321045,
				19.460866928100586,
				10.833332061767578
			],
			"min":[
				-17.28202247619629,
				-10.786866188049316,
				1.5421329736709595
			],
			"type":"VEC3"
		},
		{
			"bufferView":25,
			"componentType":5126,
			"count":65554,
			"type":"VEC3"
		},
		{
			"bufferView":26,
			"componentType":5126,
			"count":65554,
			"type":"VEC2"
		},
		{
			"bufferView":27,
			"componentType":5125,
			"count":322149,
			"type":"SCALAR"
		},
		{
			"bufferView":28,
			"componentType":5126,
			"count":65564,
			"max":[
				0.5028989911079407,
				21.339508056640625,
				10.790515899658203
			],
			"min":[
				-18.892894744873047,
				-9.604762077331543,
				1.3484359979629517
			],
			"type":"VEC3"
		},
		{
			"bufferView":29,
			"componentType":5126,
			"count":65564,
			"type":"VEC3"
		},
		{
			"bufferView":30,
			"componentType":5126,
			"count":65564,
			"type":"VEC2"
		},
		{
			"bufferView":31,
			"componentType":5125,
			"count":318081,
			"type":"SCALAR"
		},
		{
			"bufferView":32,
			"componentType":5126,
			"count":65551,
			"max":[
				-9.595024108886719,
				21.542612075805664,
				19.564380645751953
			],
			"min":[
				-23.568410873413086,
				-10.808384895324707,
				1.1003040075302124
			],
			"type":"VEC3"
		},
		{
			"bufferView":33,
			"componentType":5126,
			"count":65551,
			"type":"VEC3"
		},
		{
			"bufferView":34,
			"componentType":5126,
			"count":65551,
			"type":"VEC2"
		},
		{
			"bufferView":35,
			"componentType":5125,
			"count":325536,
			"type":"SCALAR"
		},
		{
			"bufferView":36,
			"componentType":5126,
			"count":65649,
			"max":[
				26.67375946044922,
				21.7878360748291,
				15.686229705810547
			],
			"min":[
				-23.506134033203125,
				-10.7916259765625,
				0.9307960271835327
			],
			"type":"VEC3"
		},
		{
			"bufferView":37,
			"componentType":5126,
			"count":65649,
			"type":"VEC3"
		},
		{
			"bufferView":38,
			"componentType":5126,
			"count":65649,
			"type":"VEC2"
		},
		{
			"bufferView":39,
			"componentType":5125,
			"count":270858,
			"type":"SCALAR"
		},
		{
			"bufferView":40,
			"componentType":5126,
			"count":65574,
			"max":[
				-10.325904846191406,
				21.955463409423828,
				21.596363067626953
			],
			"min":[
				-24.40157699584961,
				-7.519546031951904,
				0.9166769981384277
			],
			"type":"VEC3"
		},
		{
			"bufferView":41,
			"componentType":5126,
			"count":65574,
			"type":"VEC3"
		},
		{
			"bufferView":42,
			"componentType":5126,
			"count":65574,
			"type":"VEC2"
		},
		{
			"bufferView":43,
			"componentType":5125,
			"count":312462,
			"type":"SCALAR"
		}
	],
	"bufferViews":[
		{
			"buffer":0,
			"byteLength":787224,
			"byteOffset":0,
			"target":34962
		},
		{
			"buffer":0,
			"byteLength":787224,
			"byteOffset":787224,
			"target":34962
		},
		{
			"buffer":0,
			"byteLength":524816,
			"byteOffset":1574448,
			"target":34962
		},
		{
			"buffer":0,
			"byteLength":1090296,
			"byteOffset":2099264,
			"target":34963
		},
		{
			"buffer":0,
			"byteLength":82764,
			"byteOffset":3189560,
			"target":34962
		},
		{
			"buffer":0,
			"byteLength":82764,
			"byteOffset":3272324,
			"target":34962
		},
		{
			"buffer":0,
			"byteLength":55176,
			"byteOffset":3355088,
			"target":34962
		},
		{
			"buffer":0,
			"byteLength":49590,
			"byteOffset":3410264,
			"target":34963
		},
		{
			"buffer":0,
			"byteLength":103464,
			"byteOffset":3459856,
			"target":34962
		},
		{
			"buffer":0,
			"byteLength":103464,
			"byteOffset":3563320,
			"target":34962
		},
		{
			"buffer":0,
			"byteLength":68976,
			"byteOffset":3666784,
			"target":34962
		},
		{
			"buffer":0,
			"byteLength":37554,
			"byteOffset":3735760,
			"target":34963
		},
		{
			"buffer":0,
			"byteLength":786864,
			"byteOffset":3773316,
			"target":34962
		},
		{
			"buffer":0,
			"byteLength":786864,
			"byteOffset":4560180,
			"target":34962
		},
		{
			"buffer":0,
			"byteLength":524576,
			"byteOffset":5347044,
			"target":34962
		},
		{
			"buffer":0,
			"byteLength":1351932,
			"byteOffset":5871620,
			"target":34963
		},
		{
			"buffer":0,
			"byteLength":786792,
			"byteOffset":7223552,
			"target":34962
		},
		{
			"buffer":0,
			"byteLength":786792,
			"byteOffset":8010344,
			"target":34962
		},
		{
			"buffer":0,
			"byteLength":524528,
			"byteOffset":8797136,
			"target":34962
		},
		{
			"buffer":0,
			"byteLength":1317528,
			"byteOffset":9321664,
			"target":34963
		},
		{
			"buffer":0,
			"byteLength":786576,
			"byteOffset":10639192,
			"target":34962
		},
		{
			"buffer":0,
			"byteLength":786576,
			"byteOffset":11425768,
			"target":34962
		},
		{
			"buffer":0,
			"byteLength":524384,
			"byteOffset":12212344,
			"target":34962
		},
		{
			"buffer":0,
			"byteLength":1290984,
			"byteOffset":12736728,
			"target":34963
		},
		{
			"buffer":0,
			"byteLength":786648,
			"byteOffset":14027712,
			"target":34962
		},
		{
			"buffer":0,
			"byteLength":786648,
			"byteOffset":14814360,
			"target":34962
		},
		{
			"buffer":0,
			"byteLength":524432,
			"byteOffset":15601008,
			"target":34962
		},
		{
			"buffer":0,
			"byteLength":1288596,
			"byteOffset":16125440,
			"target":34963
		},
		{
			"buffer":0,
			"byteLength":786768,
			"byteOffset":17414036,
			"target":34962
		},
		{
			"buffer":0,
			"byteLength":786768,
			"byteOffset":18200804,
			"target":34962
		},
		{
			"buffer":0,
			"byteLength":524512,
			"byteOffset":18987572,
			"target":34962
		},
		{
			"buffer":0,
			"byteLength":1272324,
			"byteOffset":19512084,
			"target":34963
		},
		{
			"buffer":0,
			"byteLength":786612,
			"byteOffset":20784408,
			"target":34962
		},
		{
			"buffer":0,
			"byteLength":786612,
			"byteOffset":21571020,
			"target":34962
		},
		{
			"buffer":0,
			"byteLength":524408,
			"byteOffset":22357632,
			"target":34962
		},
		{
			"buffer":0,
			"byteLength":1302144,
			"byteOffset":22882040,
			"target":34963
		},
		{
			"buffer":0,
			"byteLength":787788,
			"byteOffset":24184184,
			"target":34962
		},
		{
			"buffer":0,
			"byteLength":787788,
			"byteOffset":24971972,
			"target":34962
		},
		{
			"buffer":0,
			"byteLength":525192,
			"byteOffset":25759760,
			"target":34962
		},
		{
			"buffer":0,
			"byteLength":1083432,
			"byteOffset":26284952,
			"target":34963
		},
		{
			"buffer":0,
			"byteLength":786888,
			"byteOffset":27368384,
			"target":34962
		},
		{
			"buffer":0,
			"byteLength":786888,
			"byteOffset":28155272,
			"target":34962
		},
		{
			"buffer":0,
			"byteLength":524592,
			"byteOffset":28942160,
			"target":34962
		},
		{
			"buffer":0,
			"byteLength":1249848,
			"byteOffset":29466752,
			"target":34963
		}
	],
	"samplers":[
		{
			"magFilter":9729,
			"minFilter":9987
		}
	],
	"buffers":[
		{
			"byteLength":30716600,
			"uri":"warehouse_finland.bin"
		}
	]
}
